<svg width="25" height="24" viewBox="0 0 25 24" fill="none" xmlns="http://www.w3.org/2000/svg">
<path d="M20.0508 9.44289C20.0508 9.06679 20.0047 9.00049 19.907 9.00049C19.8093 9.00049 19.7627 9.06679 19.7627 9.44289C19.7627 9.81924 19.809 9.88554 19.907 9.88554C20.0045 9.88554 20.0508 9.81924 20.0508 9.44289Z" fill="white"/>
<path d="M19.721 10.5869C19.721 10.2108 19.6744 10.144 19.5767 10.144C19.4794 10.144 19.4326 10.2103 19.4326 10.5869C19.4326 10.9635 19.4787 11.0301 19.5767 11.0301C19.6744 11.0301 19.721 10.9635 19.721 10.5869Z" fill="white"/>
<path d="M19.4226 9.44289C19.4226 9.06679 19.3766 9.00049 19.2788 9.00049C19.1811 9.00049 19.1348 9.06679 19.1348 9.44289C19.1348 9.81924 19.1808 9.88554 19.2788 9.88554C19.3763 9.88554 19.4226 9.81924 19.4226 9.44289Z" fill="white"/>
<path d="M21.5432 13.0736V6H19.2198V7.74549C18.9889 7.77816 18.5641 7.87249 18.5641 8.12184C18.5641 8.39948 19.1054 8.52623 19.6085 8.52623C20.1114 8.52623 20.653 8.39996 20.653 8.12184C20.653 7.85421 20.1821 7.76475 19.9325 7.73623V6.80779H20.8307V12.1189C20.6364 11.9609 20.3866 11.8619 20.1104 11.8619C19.7716 11.8619 19.4603 12.0048 19.251 12.251C19.0416 12.005 18.7301 11.8619 18.3917 11.8619C18.0693 11.8619 17.3422 11.9936 17.1328 12.2195C16.9234 11.9936 16.6202 11.8619 16.2977 11.8619C15.9594 11.8619 15.2242 12.0048 15.0146 12.251C14.7296 11.9161 13.3949 11.772 12.9422 11.9219C12.4896 11.7718 11.1548 11.9163 10.8699 12.251C10.6605 12.0053 10.3492 11.8619 10.0106 11.8619C9.68816 11.8619 9.38518 11.9933 9.1758 12.2193C8.96642 11.9933 8.6632 11.8619 8.34071 11.8619C8.00215 11.8619 7.69063 12.005 7.48125 12.251C7.27187 12.0053 6.9606 11.8619 6.62179 11.8619C6.11893 11.8619 5.69773 12.1808 5.56245 12.6132C5.06081 12.472 4.36345 12.2812 3.38991 12.0214C3.00576 11.9226 2.60893 12.153 2.50948 12.5167C2.45683 12.7095 2.56189 12.9827 2.61137 13.0948C2.42661 13.478 2.33301 13.8846 2.33301 14.3043V15.9945C2.33301 16.7423 2.6316 17.4224 3.11569 17.936H21.0498C21.5344 17.4224 21.833 16.7421 21.833 15.994V14.3043C21.833 13.8778 21.7348 13.4641 21.5432 13.0736ZM20.8305 12.9912H6.79973C6.70808 12.9527 6.45945 12.8686 5.76501 12.6709C5.87518 12.3273 6.21521 12.074 6.6213 12.074C6.9394 12.074 7.22726 12.2281 7.39131 12.4859L7.48076 12.6261L7.57022 12.4859C7.73451 12.2278 8.02238 12.074 8.34023 12.074C8.64199 12.074 8.92181 12.2139 9.08878 12.4482L9.17507 12.5693L9.26136 12.4482C9.42833 12.2139 9.70815 12.074 10.0099 12.074C10.3278 12.074 10.6156 12.2281 10.7799 12.4859L10.8694 12.6261L10.9588 12.4859C11.1797 12.1386 12.4835 11.9792 12.9052 12.134L12.9417 12.1474L12.9783 12.134C13.3997 11.9797 14.7036 12.1391 14.9244 12.4859L15.0139 12.6263L15.1033 12.4859C15.2674 12.2278 15.9791 12.074 16.2967 12.074C16.5985 12.074 16.8785 12.2139 17.0455 12.4484L17.1318 12.5695L17.2183 12.4484C17.3853 12.2139 18.0888 12.074 18.3908 12.074C18.7089 12.074 18.9965 12.2281 19.1608 12.4859L19.2497 12.6261L19.3394 12.4859C19.5037 12.2278 19.7914 12.074 20.1095 12.074C20.4054 12.074 20.6662 12.2095 20.8297 12.4148V12.9912H20.8305Z" fill="white"/>
</svg>
