<svg width="25" height="24" viewBox="0 0 25 24" fill="none" xmlns="http://www.w3.org/2000/svg">
<path d="M5.88352 8.9105L6.96162 13.6148H12.4312H17.9012L18.9786 8.91137C19.0252 8.38605 19.3666 7.94593 19.8362 7.7568C19.1466 6.69984 17.9552 6 16.5991 6C16.5991 6 13.4626 6.25689 12.417 6.25689C11.3788 6.25689 8.26369 6 8.26369 6C6.90736 6 5.71641 6.70006 5.02637 7.75702C5.49547 7.94614 5.83668 8.38562 5.88352 8.9105Z" fill="white"/>
<path d="M22.167 9.85798C22.167 9.159 21.5201 8.59229 20.7224 8.59229C19.9681 8.59229 19.3495 9.09865 19.2839 9.74489L18.154 14.0664H6.68042L5.54982 9.74402C5.48402 9.09865 4.86545 8.59229 4.11157 8.59229C3.31389 8.59229 2.66699 9.159 2.66699 9.85798C2.66699 9.92857 2.67527 9.99742 2.68791 10.0647L4.60595 17.4822L4.66913 17.4691V17.4822H20.2653V17.3395L22.167 10.0691C22.167 10.0691 22.167 9.92857 22.167 9.85798Z" fill="white"/>
</svg>
