<svg width="22" height="22" viewBox="0 0 22 22" fill="none" xmlns="http://www.w3.org/2000/svg">
<g opacity="0.5">
<path d="M19.2501 3.2998H2.7501C1.58135 3.2998 0.584473 4.2623 0.584473 5.46543V16.6029C0.584473 17.7717 1.54697 18.7686 2.7501 18.7686H19.2501C20.4188 18.7686 21.4157 17.8061 21.4157 16.6029V5.43105C21.4157 4.2623 20.4188 3.2998 19.2501 3.2998ZM19.2501 4.84668C19.2845 4.84668 19.3188 4.84668 19.3532 4.84668L11.0001 10.2092L2.64697 4.84668C2.68135 4.84668 2.71572 4.84668 2.7501 4.84668H19.2501ZM19.2501 17.1529H2.7501C2.40635 17.1529 2.13135 16.8779 2.13135 16.5342V6.35918L10.1751 11.5154C10.4157 11.6873 10.6907 11.7561 10.9657 11.7561C11.2407 11.7561 11.5157 11.6873 11.7563 11.5154L19.8001 6.35918V16.5686C19.8688 16.9123 19.5938 17.1529 19.2501 17.1529Z" fill="#64748B"/>
</g>
</svg>
