<svg width="22" height="21" viewBox="0 0 22 21" fill="none" xmlns="http://www.w3.org/2000/svg">
<g opacity="0.5">
<path d="M19.2501 3.91309H2.7501C1.58135 3.91309 0.584473 4.78519 0.584473 5.87531V15.9667C0.584473 17.0257 1.54697 17.929 2.7501 17.929H19.2501C20.4188 17.929 21.4157 17.0569 21.4157 15.9667V5.84416C21.4157 4.78519 20.4188 3.91309 19.2501 3.91309ZM19.2501 5.31467C19.2845 5.31467 19.3188 5.31467 19.3532 5.31467L11.0001 10.1735L2.64697 5.31467C2.68135 5.31467 2.71572 5.31467 2.7501 5.31467H19.2501ZM19.2501 16.4651H2.7501C2.40635 16.4651 2.13135 16.2159 2.13135 15.9045V6.68512L10.1751 11.3571C10.4157 11.5128 10.6907 11.5751 10.9657 11.5751C11.2407 11.5751 11.5157 11.5128 11.7563 11.3571L19.8001 6.68512V15.9356C19.8688 16.2471 19.5938 16.4651 19.2501 16.4651Z" fill="#64748B"/>
</g>
</svg>
