<svg width="25" height="24" viewBox="0 0 25 24" fill="none" xmlns="http://www.w3.org/2000/svg">
<path d="M9.00226 5.69008H23.0799C23.3369 5.69008 23.546 5.48097 23.546 5.22394C23.546 4.96692 23.3369 4.75781 23.0799 4.75781H9.00226C8.74524 4.75781 8.53613 4.96692 8.53613 5.22394C8.53613 5.48097 8.74519 5.69008 9.00226 5.69008Z" fill="#0D0E0F"/>
<path d="M1.96613 5.69008H5.48668C5.74371 5.69008 5.95281 5.48097 5.95281 5.22394C5.95281 4.96692 5.74371 4.75781 5.48668 4.75781H1.96613C1.70911 4.75781 1.5 4.96692 1.5 5.22394C1.5 5.48097 1.70906 5.69008 1.96613 5.69008Z" fill="#0D0E0F"/>
<path d="M23.08 11.7891H17.8011C17.5441 11.7891 17.335 11.9982 17.335 12.2552C17.335 12.5122 17.5441 12.7213 17.8011 12.7213H23.08C23.3371 12.7213 23.5462 12.5122 23.5462 12.2552C23.5462 11.9982 23.3371 11.7891 23.08 11.7891Z" fill="#0D0E0F"/>
<path d="M1.96613 12.7213H14.2861C14.5431 12.7213 14.7522 12.5122 14.7522 12.2552C14.7522 11.9982 14.5431 11.7891 14.2861 11.7891H1.96613C1.70911 11.7891 1.5 11.9982 1.5 12.2552C1.5 12.5122 1.70906 12.7213 1.96613 12.7213Z" fill="#0D0E0F"/>
<path d="M23.0802 18.8311H12.0638C11.8068 18.8311 11.5977 19.0402 11.5977 19.2972C11.5977 19.5542 11.8068 19.7633 12.0638 19.7633H23.0802C23.3372 19.7633 23.5463 19.5542 23.5463 19.2972C23.5463 19.0402 23.3372 18.8311 23.0802 18.8311Z" fill="#0D0E0F"/>
<path d="M8.54856 18.8311H1.96613C1.70911 18.8311 1.5 19.0402 1.5 19.2972C1.5 19.5542 1.70911 19.7633 1.96613 19.7633H8.54861C8.80563 19.7633 9.01474 19.5542 9.01474 19.2972C9.01469 19.0402 8.80563 18.8311 8.54856 18.8311Z" fill="#0D0E0F"/>
<path d="M9.4694 5.22396C9.4694 3.99766 8.47174 3 7.24544 3C6.01915 3 5.02148 3.99766 5.02148 5.22396C5.02148 6.45026 6.01915 7.44792 7.24544 7.44792C8.47174 7.44792 9.4694 6.45026 9.4694 5.22396ZM7.24544 6.51566C6.5332 6.51566 5.95375 5.93621 5.95375 5.22396C5.95375 4.51171 6.5332 3.93226 7.24544 3.93226C7.95769 3.93226 8.53714 4.51171 8.53714 5.22396C8.53714 5.93621 7.95769 6.51566 7.24544 6.51566Z" fill="#0D0E0F"/>
<path d="M16.0442 10.0366C14.8179 10.0366 13.8203 11.0343 13.8203 12.2606C13.8203 13.4869 14.8179 14.4845 16.0442 14.4845C17.2705 14.4845 18.2682 13.4869 18.2682 12.2606C18.2682 11.0343 17.2705 10.0366 16.0442 10.0366ZM16.0442 13.5523C15.332 13.5523 14.7526 12.9728 14.7526 12.2606C14.7526 11.5484 15.332 10.9689 16.0442 10.9689C16.7565 10.9689 17.3359 11.5484 17.3359 12.2606C17.3359 12.9729 16.7565 13.5523 16.0442 13.5523Z" fill="#0D0E0F"/>
<path d="M10.3059 17.0728C9.07969 17.0728 8.08203 18.0704 8.08203 19.2967C8.08203 20.523 9.07969 21.5207 10.3059 21.5207C11.5323 21.5207 12.53 20.523 12.53 19.2967C12.53 18.0705 11.5323 17.0728 10.3059 17.0728ZM11.5977 19.2967C11.5977 20.009 11.0182 20.5884 10.3059 20.5884C9.59374 20.5884 9.01429 20.009 9.01429 19.2967C9.01429 18.5845 9.59374 18.005 10.3059 18.005C11.0182 18.005 11.5977 18.5845 11.5977 19.2967Z" fill="#0D0E0F"/>
</svg>
