<svg width="25" height="25" viewBox="0 0 25 25" fill="none" xmlns="http://www.w3.org/2000/svg">
<path d="M9.00226 6.19008H23.0799C23.3369 6.19008 23.546 5.98097 23.546 5.72394C23.546 5.46692 23.3369 5.25781 23.0799 5.25781H9.00226C8.74524 5.25781 8.53613 5.46692 8.53613 5.72394C8.53613 5.98097 8.74519 6.19008 9.00226 6.19008Z" fill="white"/>
<path d="M1.96613 6.19008H5.48668C5.74371 6.19008 5.95281 5.98097 5.95281 5.72394C5.95281 5.46692 5.74371 5.25781 5.48668 5.25781H1.96613C1.70911 5.25781 1.5 5.46692 1.5 5.72394C1.5 5.98097 1.70906 6.19008 1.96613 6.19008Z" fill="white"/>
<path d="M23.08 12.2891H17.8011C17.5441 12.2891 17.335 12.4982 17.335 12.7552C17.335 13.0122 17.5441 13.2213 17.8011 13.2213H23.08C23.3371 13.2213 23.5462 13.0122 23.5462 12.7552C23.5462 12.4982 23.3371 12.2891 23.08 12.2891Z" fill="white"/>
<path d="M1.96613 13.2213H14.2861C14.5431 13.2213 14.7522 13.0122 14.7522 12.7552C14.7522 12.4982 14.5431 12.2891 14.2861 12.2891H1.96613C1.70911 12.2891 1.5 12.4982 1.5 12.7552C1.5 13.0122 1.70906 13.2213 1.96613 13.2213Z" fill="white"/>
<path d="M23.0802 19.3311H12.0638C11.8068 19.3311 11.5977 19.5402 11.5977 19.7972C11.5977 20.0542 11.8068 20.2633 12.0638 20.2633H23.0802C23.3372 20.2633 23.5463 20.0542 23.5463 19.7972C23.5463 19.5402 23.3372 19.3311 23.0802 19.3311Z" fill="white"/>
<path d="M8.54856 19.3311H1.96613C1.70911 19.3311 1.5 19.5402 1.5 19.7972C1.5 20.0542 1.70911 20.2633 1.96613 20.2633H8.54861C8.80563 20.2633 9.01474 20.0542 9.01474 19.7972C9.01469 19.5402 8.80563 19.3311 8.54856 19.3311Z" fill="white"/>
<path d="M9.46892 5.72396C9.46892 4.49766 8.47125 3.5 7.24496 3.5C6.01866 3.5 5.021 4.49766 5.021 5.72396C5.021 6.95026 6.01866 7.94792 7.24496 7.94792C8.47125 7.94792 9.46892 6.95026 9.46892 5.72396ZM7.24496 7.01566C6.53271 7.01566 5.95326 6.43621 5.95326 5.72396C5.95326 5.01171 6.53271 4.43226 7.24496 4.43226C7.9572 4.43226 8.53665 5.01171 8.53665 5.72396C8.53665 6.43621 7.9572 7.01566 7.24496 7.01566Z" fill="white"/>
<path d="M16.0437 10.5366C14.8174 10.5366 13.8198 11.5343 13.8198 12.7606C13.8198 13.9869 14.8174 14.9845 16.0437 14.9845C17.27 14.9845 18.2677 13.9869 18.2677 12.7606C18.2677 11.5343 17.27 10.5366 16.0437 10.5366ZM16.0437 14.0523C15.3315 14.0523 14.7521 13.4728 14.7521 12.7606C14.7521 12.0484 15.3315 11.4689 16.0437 11.4689C16.756 11.4689 17.3354 12.0484 17.3354 12.7606C17.3354 13.4729 16.756 14.0523 16.0437 14.0523Z" fill="white"/>
<path d="M10.3059 17.5728C9.07969 17.5728 8.08203 18.5704 8.08203 19.7967C8.08203 21.023 9.07969 22.0207 10.3059 22.0207C11.5323 22.0207 12.53 21.023 12.53 19.7967C12.53 18.5705 11.5323 17.5728 10.3059 17.5728ZM11.5977 19.7967C11.5977 20.509 11.0182 21.0884 10.3059 21.0884C9.59374 21.0884 9.01429 20.509 9.01429 19.7967C9.01429 19.0845 9.59374 18.505 10.3059 18.505C11.0182 18.505 11.5977 19.0845 11.5977 19.7967Z" fill="white"/>
</svg>
