<svg width="24" height="24" viewBox="0 0 24 24" fill="none" xmlns="http://www.w3.org/2000/svg">
<g clip-path="url(#clip0_434_6505)">
<path d="M12 24.0131C18.6274 24.0131 24 18.6405 24 12.0131C24 5.3857 18.6274 0.0131836 12 0.0131836C5.37258 0.0131836 0 5.3857 0 12.0131C0 18.6405 5.37258 24.0131 12 24.0131Z" fill="#666666"/>
<path d="M9.53674e-07 36C6.62742 36 12 30.6274 12 24C12 17.3726 6.62742 12 9.53674e-07 12C-6.62742 12 -12 17.3726 -12 24C-12 30.6274 -6.62742 36 9.53674e-07 36Z" fill="#141414"/>
<path d="M24 36C30.6274 36 36 30.6274 36 24C36 17.3726 30.6274 12 24 12C17.3726 12 12 17.3726 12 24C12 30.6274 17.3726 36 24 36Z" fill="#141414"/>
<path d="M9.53674e-07 12C6.62742 12 12 6.62742 12 9.53674e-07C12 -6.62742 6.62742 -12 9.53674e-07 -12C-6.62742 -12 -12 -6.62742 -12 9.53674e-07C-12 6.62742 -6.62742 12 9.53674e-07 12Z" fill="#141414"/>
<path d="M24 12C30.6274 12 36 6.62742 36 9.53674e-07C36 -6.62742 30.6274 -12 24 -12C17.3726 -12 12 -6.62742 12 9.53674e-07C12 6.62742 17.3726 12 24 12Z" fill="#141414"/>
</g>
<defs>
<clipPath id="clip0_434_6505">
<rect width="24" height="24" fill="white"/>
</clipPath>
</defs>
</svg>
