<svg width="16" height="16" viewBox="0 0 16 16" fill="none" xmlns="http://www.w3.org/2000/svg">
<g clip-path="url(#clip0_434_6512)">
<path d="M8.00078 15.2076C11.9772 15.2076 15.2008 11.984 15.2008 8.00758C15.2008 4.03113 11.9772 0.807617 8.00078 0.807617C4.02433 0.807617 0.800781 4.03113 0.800781 8.00758C0.800781 11.984 4.02433 15.2076 8.00078 15.2076Z" fill="#333333"/>
<path d="M0.801562 22.3995C4.77801 22.3995 8.00156 19.176 8.00156 15.1995C8.00156 11.2231 4.77801 7.99951 0.801562 7.99951C-3.17489 7.99951 -6.39844 11.2231 -6.39844 15.1995C-6.39844 19.176 -3.17489 22.3995 0.801562 22.3995Z" fill="#141414"/>
<path d="M15.202 22.3995C19.1784 22.3995 22.402 19.176 22.402 15.1995C22.402 11.2231 19.1784 7.99951 15.202 7.99951C11.2255 7.99951 8.00195 11.2231 8.00195 15.1995C8.00195 19.176 11.2255 22.3995 15.202 22.3995Z" fill="#141414"/>
<path d="M0.801562 7.99961C4.77801 7.99961 8.00156 4.77606 8.00156 0.799609C8.00156 -3.17684 4.77801 -6.40039 0.801562 -6.40039C-3.17489 -6.40039 -6.39844 -3.17684 -6.39844 0.799609C-6.39844 4.77606 -3.17489 7.99961 0.801562 7.99961Z" fill="#141414"/>
<path d="M15.202 7.99961C19.1784 7.99961 22.402 4.77606 22.402 0.799609C22.402 -3.17684 19.1784 -6.40039 15.202 -6.40039C11.2255 -6.40039 8.00195 -3.17684 8.00195 0.799609C8.00195 4.77606 11.2255 7.99961 15.202 7.99961Z" fill="#141414"/>
</g>
<defs>
<clipPath id="clip0_434_6512">
<rect width="14.4" height="14.4" fill="white" transform="translate(0.800781 0.799805)"/>
</clipPath>
</defs>
</svg>
