<svg width="7" height="8" viewBox="0 0 7 8" fill="none" xmlns="http://www.w3.org/2000/svg">
<g clip-path="url(#clip0_434_6519)">
<path d="M3.36 7.36402C5.21568 7.36402 6.72 5.8597 6.72 4.00402C6.72 2.14835 5.21568 0.644043 3.36 0.644043C1.50432 0.644043 0 2.14835 0 4.00402C0 5.8597 1.50432 7.36402 3.36 7.36402Z" fill="#333333"/>
<path d="M0.000625134 10.7205C1.8563 10.7205 3.36063 9.21617 3.36063 7.36049C3.36063 5.50481 1.8563 4.00049 0.000625134 4.00049C-1.85505 4.00049 -3.35938 5.50481 -3.35938 7.36049C-3.35938 9.21617 -1.85505 10.7205 0.000625134 10.7205Z" fill="#141414"/>
<path d="M6.72133 10.7205C8.57701 10.7205 10.0813 9.21617 10.0813 7.36049C10.0813 5.50481 8.57701 4.00049 6.72133 4.00049C4.86565 4.00049 3.36133 5.50481 3.36133 7.36049C3.36133 9.21617 4.86565 10.7205 6.72133 10.7205Z" fill="#141414"/>
<path d="M0.000625134 4.00027C1.8563 4.00027 3.36063 2.49595 3.36063 0.640273C3.36063 -1.2154 1.8563 -2.71973 0.000625134 -2.71973C-1.85505 -2.71973 -3.35938 -1.2154 -3.35938 0.640273C-3.35938 2.49595 -1.85505 4.00027 0.000625134 4.00027Z" fill="#141414"/>
<path d="M6.72133 4.00027C8.57701 4.00027 10.0813 2.49595 10.0813 0.640273C10.0813 -1.2154 8.57701 -2.71973 6.72133 -2.71973C4.86565 -2.71973 3.36133 -1.2154 3.36133 0.640273C3.36133 2.49595 4.86565 4.00027 6.72133 4.00027Z" fill="#141414"/>
</g>
<defs>
<clipPath id="clip0_434_6519">
<rect width="6.72" height="6.72" fill="white" transform="translate(0 0.640137)"/>
</clipPath>
</defs>
</svg>
