<svg width="20" height="19" viewBox="0 0 20 19" fill="none" xmlns="http://www.w3.org/2000/svg">
<g clip-path="url(#clip0_431_35411)">
<path d="M20 9.43244C20.0121 8.80954 19.9397 8.18761 19.7844 7.58008H10.2041V10.9426H15.8276C15.7211 11.5321 15.4814 12.0965 15.1229 12.6017C14.7644 13.1069 14.2945 13.5425 13.7415 13.8822L13.7219 13.9949L16.7512 16.0786L16.9609 16.0972C18.8883 14.5166 19.9996 12.1909 19.9996 9.43244" fill="#4285F4"/>
<path d="M10.204 18.2922C12.959 18.2922 15.272 17.4868 16.9615 16.0975L13.7414 13.8825C12.8798 14.4162 11.7234 14.7887 10.204 14.7887C8.91366 14.782 7.65844 14.4147 6.61645 13.7388C5.57445 13.063 4.7986 12.1129 4.39897 11.0234L4.27938 11.0325L1.12955 13.197L1.08838 13.2986C1.93671 14.7999 3.23861 16.062 4.84851 16.9439C6.4584 17.8258 8.31283 18.2926 10.2044 18.2922" fill="#34A853"/>
<path d="M4.39899 11.0235C4.1758 10.4467 4.06063 9.84135 4.05807 9.2315C4.06218 8.62264 4.1731 8.01807 4.38684 7.43954L4.38115 7.31942L1.19269 5.12012L1.0884 5.16416C0.372763 6.4258 0 7.81878 0 9.23141C0 10.644 0.372763 12.037 1.0884 13.2987L4.39899 11.0235Z" fill="#FBBC05"/>
<path d="M10.2039 3.67405C11.6661 3.65389 13.0802 4.13742 14.1495 5.02316L17.0294 2.52635C15.1823 0.987729 12.7364 0.143507 10.2039 0.170552C8.31236 0.170153 6.45795 0.636973 4.84805 1.51881C3.23816 2.40066 1.93625 3.66276 1.08789 5.16399L4.3875 7.43936C4.79107 6.35008 5.5695 5.40075 6.61303 4.72521C7.65655 4.04967 8.91255 3.68201 10.2039 3.67405Z" fill="#EB4335"/>
</g>
<defs>
<clipPath id="clip0_431_35411">
<rect width="20" height="18.1215" fill="white" transform="translate(0 0.170898)"/>
</clipPath>
</defs>
</svg>
