<svg width="20" height="20" viewBox="0 0 20 20" fill="none" xmlns="http://www.w3.org/2000/svg">
<g clip-path="url(#clip0_431_17942)">
<path d="M20 10.2221C20.0121 9.53464 19.9397 8.84825 19.7844 8.17773H10.2041V11.8888H15.8276C15.7211 12.5395 15.4814 13.1623 15.1229 13.7199C14.7644 14.2774 14.2945 14.7582 13.7415 15.1332L13.7219 15.2575L16.7512 17.5572L16.9609 17.5777C18.8883 15.8333 19.9996 13.2665 19.9996 10.2221" fill="#4285F4"/>
<path d="M10.2043 19.9998C12.9593 19.9998 15.2722 19.1109 16.9617 17.5775L13.7417 15.133C12.8801 15.722 11.7236 16.1332 10.2043 16.1332C8.91391 16.1258 7.65869 15.7203 6.61669 14.9744C5.5747 14.2285 4.79885 13.1799 4.39922 11.9775L4.27963 11.9875L1.12979 14.3764L1.08862 14.4886C1.93695 16.1455 3.23885 17.5384 4.84875 18.5117C6.45865 19.485 8.31307 20.0002 10.2047 19.9998" fill="#34A853"/>
<path d="M4.39924 11.9782C4.17604 11.3416 4.06087 10.6735 4.05832 10.0005C4.06243 9.32848 4.17334 8.66124 4.38708 8.02274L4.3814 7.89017L1.19294 5.46289L1.08864 5.5115C0.373007 6.90392 0.000244141 8.44129 0.000244141 10.0004C0.000244141 11.5594 0.373007 13.0968 1.08864 14.4892L4.39924 11.9782Z" fill="#FBBC05"/>
<path d="M10.2042 3.86639C11.6663 3.84414 13.0804 4.37778 14.1498 5.35534L17.0296 2.59972C15.1826 0.901604 12.7366 -0.0301296 10.2042 -0.000280925C8.3126 -0.000721975 6.45819 0.514488 4.8483 1.48774C3.2384 2.46099 1.93649 3.85392 1.08813 5.51077L4.38775 8.02201C4.79132 6.81981 5.56974 5.77207 6.61327 5.0265C7.6568 4.28094 8.91279 3.87516 10.2042 3.86639Z" fill="#EB4335"/>
</g>
<defs>
<clipPath id="clip0_431_17942">
<rect width="20" height="20" fill="white"/>
</clipPath>
</defs>
</svg>
