<svg width="999" height="197" viewBox="0 0 999 197" fill="none" xmlns="http://www.w3.org/2000/svg">
<path fill-rule="evenodd" clip-rule="evenodd" d="M15.644 195C8.32365 195 3.05443 187.971 5.10794 180.944C6.42826 176.426 10.4818 173.253 15.1843 173.056L24.1949 172.678C27.6639 172.533 31.0579 171.622 34.1336 170.012L39.6965 167.098C43.1484 165.29 46.9676 164.295 50.8628 164.188C57.4499 164.006 63.7131 161.29 68.3477 156.606L68.5924 156.359C71.4394 153.481 73.588 149.988 74.8728 146.15L83.0092 121.841C83.1976 121.278 83.4466 120.737 83.7518 120.228C86.7234 115.273 93.7534 114.87 97.2723 119.453L104.269 128.565C106.49 131.458 109.633 133.505 113.176 134.369L115.088 134.835C119.596 135.933 124.357 135.148 128.274 132.659L128.974 132.214C131.41 130.667 133.323 128.422 134.464 125.773C139.079 115.062 153.859 114.023 159.927 123.983L172.705 144.958C176.911 151.862 186.969 151.762 191.037 144.776L191.885 143.32C194.648 138.575 200.933 137.305 205.321 140.605C209.97 144.1 216.657 142.44 219.132 137.177L222.771 129.438C223.345 128.217 223.764 126.929 224.017 125.604L224.063 125.365C224.952 120.715 227.632 116.6 231.525 113.906L238.177 109.304C239.02 108.721 239.716 107.949 240.21 107.051C242.854 102.238 249.874 102.562 252.063 107.599L253.768 111.523C254.372 112.913 254.603 114.436 254.438 115.943L253.878 121.054C253.586 123.725 255.322 126.198 257.933 126.83C259.686 127.255 261.536 126.766 262.851 125.531L264.173 124.288C265.655 122.896 266.602 121.028 266.851 119.01L267.16 116.494C269.008 101.463 290.906 101.777 292.323 116.855L293.649 130.966C294.245 137.311 302.294 139.659 306.208 134.63C307.17 133.394 307.692 131.873 307.692 130.308V128.789C307.692 125.511 309.095 122.39 311.547 120.215L316.022 116.244C317.519 114.916 318.85 113.411 319.985 111.762L323.232 107.046C328.563 100.718 337.57 98.9362 344.908 102.757L354.034 107.509L361.468 111.734C363.578 112.934 366.135 113.048 368.344 112.041C371.419 110.639 375.051 111.447 377.242 114.021L378.963 116.042C383.81 121.736 392.79 121.093 396.776 114.766L401.205 107.735C405.067 101.606 414.313 102.703 416.633 109.566C417.078 110.883 417.836 112.073 418.841 113.033L424.705 118.632C428.693 122.441 434.439 123.777 439.698 122.117C442.881 121.113 445.643 119.084 447.552 116.346L448.74 114.642C450.138 112.636 452.09 111.08 454.357 110.163L455.523 109.691C458.88 108.332 461.286 105.322 461.872 101.749C462.085 100.446 462.545 99.1953 463.228 98.0648L469.661 87.4026C472.004 83.5194 476.708 81.7551 481.027 83.1397L487.026 85.063C488.93 85.6734 490.964 84.6069 491.546 82.6941C492.624 79.1463 497.722 79.3748 498.478 83.0049L514.032 157.664C515.84 166.343 527.053 168.812 532.339 161.695C534.124 159.292 536.869 157.786 539.855 157.573L551.471 156.743C554.959 156.494 558.439 157.332 561.431 159.143C571.669 165.339 584.928 159.23 586.871 147.421L591.559 118.94C592.279 114.562 596.629 111.769 600.91 112.936L601.835 113.188C604.108 113.808 606.533 113.039 608.034 111.223L609.684 109.228C610.728 107.965 612.562 107.708 613.913 108.635C614.539 109.064 615.299 109.254 616.054 109.17L618.231 108.927C620.113 108.717 621.998 109.3 623.432 110.536C624.317 111.299 625.383 111.821 626.528 112.052L631.154 112.988C633.276 113.418 634.821 115.256 634.877 117.421C634.927 119.33 636.138 121.013 637.932 121.666L644.193 123.945C645.986 124.597 647.894 124.871 649.797 124.748L651.626 124.63C657.476 124.253 662.144 119.604 662.543 113.755C662.601 112.911 662.567 112.063 662.441 111.226L657.203 76.231C655.529 65.0501 669.552 58.6725 676.879 67.2826C677.359 67.8473 677.895 68.363 678.477 68.8222L679.201 69.3938C686.094 74.8329 695.682 75.2899 703.061 70.531L710.089 65.9988C718.124 60.8169 728.58 61.3905 736 67.4202L737.488 68.6294C740.464 71.0481 744.183 72.3684 748.018 72.3684C752.263 72.3684 756.298 74.2182 759.069 77.4348L762.84 81.812L764.677 83.7882C769.846 89.347 776.931 92.7396 784.502 93.2821L820.216 95.8411C823.437 96.0719 826.497 94.406 828.052 91.5757C830.882 86.424 838.033 85.7885 841.727 90.3604L853.571 105.017C861.142 114.388 875.826 112.972 881.469 102.328L883.076 99.2962C886.818 92.2361 895.8 89.8902 902.517 94.2184C907.591 97.4881 914.21 97.0341 918.79 93.1023L921.105 91.1157C926.957 86.0916 935.387 85.4279 941.953 89.4741L952.901 96.2198L963.387 101.798C967.309 103.885 971.891 104.361 976.159 103.125C977.925 102.614 979.597 101.82 981.11 100.776L989.119 95.2466C992.898 91.7761 999 94.4571 999 99.5883V165C999 181.569 985.569 195 969 195H83.6059H15.644Z" fill="url(#paint0_linear_338_3604)"/>
<path d="M1 196L2.75289 189.841C5.51659 180.131 14.1954 173.287 24.2825 172.863V172.863C27.7349 172.718 31.1124 171.811 34.1724 170.206L39.7581 167.276C43.2089 165.466 47.0278 164.469 50.9229 164.362V164.362C57.5078 164.18 63.7681 161.463 68.3975 156.776L68.6533 156.517C71.4967 153.639 73.6422 150.147 74.9246 146.309L83.0494 121.998C83.2467 121.407 83.5102 120.841 83.8348 120.31V120.31C86.8633 115.355 93.9274 114.995 97.4437 119.617L104.316 128.651C106.538 131.572 109.696 133.641 113.262 134.511L115.187 134.981C119.662 136.073 124.388 135.293 128.274 132.82L128.967 132.379C131.435 130.809 133.361 128.519 134.487 125.82V125.82C138.987 115.028 153.835 113.909 159.901 123.906L172.755 145.088C176.95 152 187.013 151.906 191.078 144.916L191.924 143.461C194.684 138.715 200.969 137.444 205.355 140.747V140.747C210.001 144.245 216.688 142.586 219.16 137.322L222.804 129.56C223.377 128.34 223.794 127.054 224.047 125.73L224.093 125.487C224.983 120.83 227.664 116.707 231.562 114.007L238.207 109.402C239.049 108.819 239.744 108.047 240.236 107.149V107.149C242.878 102.333 249.902 102.657 252.089 107.696L253.796 111.631C254.399 113.019 254.629 114.54 254.465 116.044L253.903 121.179C253.611 123.848 255.345 126.319 257.955 126.952V126.952C259.71 127.378 261.561 126.889 262.876 125.651L264.2 124.405C265.68 123.013 266.626 121.146 266.873 119.129L267.18 116.625C269.024 101.594 290.921 101.904 292.338 116.981L293.665 131.101C294.262 137.448 302.317 139.794 306.228 134.76V134.76C307.188 133.525 307.708 132.006 307.708 130.442V128.915C307.708 125.633 309.113 122.506 311.567 120.326L316.036 116.354C317.534 115.023 318.865 113.515 320.001 111.864L323.246 107.142V107.142C328.574 100.808 337.587 99.0239 344.926 102.851L354.043 107.605L361.476 111.837C363.585 113.038 366.143 113.152 368.351 112.144V112.144C371.425 110.741 375.057 111.549 377.245 114.124L378.967 116.15C383.811 121.848 392.794 121.205 396.777 114.874L401.202 107.84C405.062 101.704 414.315 102.801 416.633 109.67V109.67C417.077 110.986 417.834 112.175 418.838 113.135L424.704 118.746C428.69 122.558 434.437 123.895 439.696 122.233V122.233C442.877 121.228 445.636 119.198 447.542 116.461L448.734 114.748C450.132 112.74 452.084 111.182 454.351 110.263L455.508 109.794C458.87 108.431 461.278 105.416 461.864 101.836V101.836C462.077 100.532 462.537 99.2807 463.219 98.149L469.566 87.6125C471.958 83.6425 476.766 81.8385 481.179 83.2555L487.235 85.2C489.037 85.7785 490.97 84.8127 491.59 83.0249V83.0249C492.747 79.689 497.561 79.9931 498.289 83.4479L513.963 157.863C515.793 166.551 527.024 169.006 532.312 161.875V161.875C534.101 159.463 536.854 157.952 539.849 157.737L551.444 156.907C554.934 156.658 558.415 157.497 561.408 159.311V159.311C571.639 165.512 584.898 159.407 586.838 147.601L591.531 119.039C592.25 114.663 596.599 111.871 600.877 113.039L601.801 113.292C604.074 113.913 606.501 113.143 608.001 111.326L609.652 109.326C610.695 108.063 612.529 107.805 613.88 108.733V108.733C614.506 109.163 615.266 109.353 616.021 109.269L618.195 109.026C620.078 108.815 621.963 109.399 623.398 110.637V110.637C624.282 111.401 625.348 111.923 626.493 112.155L631.112 113.091C633.238 113.522 634.784 115.364 634.84 117.532V117.532C634.89 119.443 636.103 121.129 637.899 121.784L644.152 124.063C645.946 124.717 647.856 124.991 649.761 124.868L651.567 124.752C657.427 124.373 662.103 119.715 662.502 113.856V113.856C662.56 113.013 662.526 112.167 662.401 111.332L657.174 76.2368C655.51 65.066 669.529 58.7097 676.835 67.3221V67.3221C677.316 67.8889 677.851 68.4065 678.435 68.8673L679.16 69.4409C686.048 74.8843 695.637 75.3415 703.011 70.5782L710.17 65.9544C718.112 60.8245 728.462 61.4297 735.752 67.4504L737.407 68.817C740.225 71.144 743.765 72.4169 747.419 72.4169V72.4169C751.85 72.4169 756.075 74.2864 759.055 77.5654L765.486 84.6421C770.115 89.7347 776.353 93.0814 783.155 94.121L795.165 95.9566C796.665 96.1858 798.18 96.301 799.698 96.301H820.142C823.225 96.301 826.063 94.6204 827.545 91.9169V91.9169C830.439 86.6405 837.765 85.9977 841.533 90.6895L853.047 105.026L853.604 105.746C860.903 115.166 875.495 113.904 881.067 103.369V103.369C885.809 94.4057 897.338 92.0787 905.966 97.4063C908.682 99.0832 910.847 100.17 911.504 99.8622C912.039 99.6116 913.524 98.4675 915.468 96.8787C925.363 88.7881 939.397 87.9043 949.802 95.3265V95.3265L956.951 99.3028C965.657 104.145 976.298 103.914 984.785 98.6991L987.881 96.7968C988.415 96.4685 988.892 96.0543 989.291 95.5709L995.48 88.0799C996.086 87.3472 995.565 86.2406 994.614 86.2406V86.2406H995.894" stroke="#CFB732" stroke-width="1.5"/>
<defs>
<linearGradient id="paint0_linear_338_3604" x1="250.5" y1="97.8219" x2="250.5" y2="195" gradientUnits="userSpaceOnUse">
<stop stop-color="#090808" stop-opacity="0.5"/>
<stop offset="0.241667" stop-color="#444444" stop-opacity="0.421928"/>
<stop offset="1" stop-color="white" stop-opacity="0.176942"/>
</linearGradient>
</defs>
</svg>
