<svg width="16" height="16" viewBox="0 0 16 16" fill="none" xmlns="http://www.w3.org/2000/svg">
<path fill-rule="evenodd" clip-rule="evenodd" d="M8 14.8C11.7555 14.8 14.8 11.7555 14.8 8C14.8 4.24446 11.7555 1.2 8 1.2C4.24446 1.2 1.2 4.24446 1.2 8C1.2 11.7555 4.24446 14.8 8 14.8ZM8 16C12.4183 16 16 12.4183 16 8C16 3.58172 12.4183 0 8 0C3.58172 0 0 3.58172 0 8C0 12.4183 3.58172 16 8 16Z" fill="white"/>
<path fill-rule="evenodd" clip-rule="evenodd" d="M11.5808 5.56587C11.8151 5.80018 11.8151 6.18008 11.5808 6.41439L6.99994 10.9952L4.57567 8.57095C4.34136 8.33664 4.34136 7.95674 4.57567 7.72242C4.80999 7.48811 5.18989 7.48811 5.4242 7.72242L6.99994 9.29816L10.7322 5.56587C10.9665 5.33155 11.3464 5.33155 11.5808 5.56587Z" fill="white"/>
</svg>
