<svg width="24" height="24" viewBox="0 0 24 24" fill="none" xmlns="http://www.w3.org/2000/svg">
<path fill-rule="evenodd" clip-rule="evenodd" d="M20.4004 11.9998C20.4004 12.4969 19.9974 12.8998 19.5004 12.8998L6.73489 12.8998L11.7242 17.6511C12.0825 17.9956 12.0937 18.5653 11.7491 18.9236C11.4046 19.2819 10.8349 19.2931 10.4766 18.9486L3.87659 12.6486C3.70012 12.4789 3.60039 12.2446 3.60039 11.9998C3.60039 11.755 3.70012 11.5207 3.87659 11.3511L10.4766 5.05106C10.8349 4.70654 11.4046 4.71771 11.7491 5.07601C12.0937 5.4343 12.0825 6.00404 11.7242 6.34856L6.73489 11.0998L19.5004 11.0998C19.9974 11.0998 20.4004 11.5027 20.4004 11.9998Z" fill="#808080"/>
</svg>
