<svg width="20" height="21" viewBox="0 0 20 21" fill="none" xmlns="http://www.w3.org/2000/svg">
<g clip-path="url(#clip0_407_867)">
<g clip-path="url(#clip1_407_867)">
<path d="M0.837286 3.7663C0.612648 4.03046 0.387352 4.29397 0.167984 4.55155C-0.262846 4.11676 -0.63834 3.73863 -1 3.37434C-0.083004 2.45602 0.852437 1.51992 1.77602 0.595682C2.70026 1.5219 3.63505 2.458 4.55072 3.37566C4.19302 3.73336 3.81489 4.11083 3.40382 4.5219C3.16601 4.25642 2.91041 3.97118 2.59025 3.61479V7.40464C4.31555 5.67671 6.08234 3.90859 7.8386 2.1497C7.37549 2.1497 6.85112 2.11742 6.33333 2.15958C5.88472 2.19581 5.57115 2.04825 5.27866 1.71755C4.92358 1.31637 4.51976 0.958001 4.08235 0.527829C4.24769 0.515313 4.33794 0.502797 4.42885 0.502797C8.82148 0.502138 13.2141 0.500162 17.6067 0.502797C19.0086 0.503455 20.0079 1.4804 20.0099 2.87368C20.0171 7.28936 20.0125 11.7044 20.0125 16.1201C20.0125 16.1813 20.0059 16.2432 19.9209 16.3631C19.5231 15.9468 19.143 15.5114 18.72 15.122C18.4453 14.8691 18.3347 14.6056 18.357 14.234C18.3887 13.7143 18.365 13.1912 18.365 12.6747C16.6008 14.4409 14.8544 16.1886 13.112 17.933H16.9091C16.554 17.6431 16.2615 17.4046 15.9743 17.1701C16.4453 16.7169 16.8287 16.348 17.2016 15.9883C18.0837 16.8803 19.0152 17.8216 19.9401 18.7564C19.0441 19.6458 18.1047 20.5786 17.1752 21.5008C16.8261 21.1451 16.4545 20.767 16.0586 20.3638C16.2813 20.1675 16.5349 19.9435 16.7885 19.7195C16.7727 19.6807 16.7569 19.6418 16.7404 19.6036H16.3775C12.0507 19.6036 7.72398 19.6049 3.39723 19.6029C2.21278 19.6029 1.35903 19.0285 1.03294 17.9837C0.943346 17.6965 0.917655 17.3803 0.916996 17.0766C0.90975 12.7709 0.912385 8.46525 0.912385 4.15958C0.912385 4.04364 0.912385 3.92704 0.912385 3.8111C0.886693 3.79595 0.861001 3.78145 0.83531 3.7663H0.837286ZM2.56258 16.6833C7.40975 11.8355 12.249 6.99489 17.0935 2.1497C16.4032 2.1497 15.6937 2.14377 14.9842 2.15695C14.8933 2.15892 14.7879 2.24193 14.7154 2.31439C10.7167 6.30912 6.72003 10.3065 2.72596 14.3065C2.65415 14.379 2.57115 14.4844 2.56917 14.5753C2.55599 15.2841 2.56192 15.9929 2.56192 16.6826L2.56258 16.6833ZM18.365 3.458C13.5296 8.29199 8.69499 13.126 3.86693 17.9527C4.52569 17.9527 5.22464 17.9587 5.92358 17.9455C6.01449 17.9435 6.11858 17.8572 6.19104 17.7841C10.1963 13.7828 14.1996 9.77882 18.1996 5.77289C18.2721 5.70043 18.3557 5.59502 18.357 5.50411C18.3702 4.80583 18.3643 4.10688 18.3643 3.458H18.365ZM18.365 8.08778C15.0758 11.3743 11.7833 14.6642 8.49144 17.9527C9.15876 17.9527 9.85705 17.9587 10.556 17.9455C10.6462 17.9435 10.749 17.8533 10.8221 17.7801C13.2846 15.3223 15.7444 12.8618 18.2016 10.3987C18.2734 10.3262 18.3557 10.2202 18.3577 10.1286C18.3709 9.42967 18.365 8.73073 18.365 8.08712V8.08778ZM2.56258 12.0232C5.861 8.72612 9.14624 5.44153 12.4387 2.1497C11.7793 2.1497 11.1028 2.14377 10.4262 2.15629C10.334 2.15826 10.2266 2.23534 10.1548 2.30649C7.67589 4.78014 5.20026 7.25642 2.72727 9.73534C2.65547 9.8078 2.5718 9.91255 2.56983 10.0041C2.55665 10.682 2.56258 11.3598 2.56258 12.0232Z" fill="#999999"/>
</g>
</g>
<defs>
<clipPath id="clip0_407_867">
<rect width="20" height="20" fill="white" transform="translate(0 0.5)"/>
</clipPath>
<clipPath id="clip1_407_867">
<rect width="21.0145" height="21" fill="white" transform="translate(-1 0.5)"/>
</clipPath>
</defs>
</svg>
