<svg width="21" height="21" viewBox="0 0 21 21" fill="none" xmlns="http://www.w3.org/2000/svg">
<path fill-rule="evenodd" clip-rule="evenodd" d="M10.5002 13.8334C10.3102 13.8334 10.1211 13.7692 9.96692 13.6401L4.96692 9.4734C4.61358 9.17923 4.56525 8.6534 4.86025 8.30007C5.15442 7.94673 5.67942 7.89923 6.03358 8.1934L10.5094 11.9234L14.9778 8.32757C15.3361 8.03923 15.8611 8.0959 16.1494 8.45423C16.4377 8.81257 16.3811 9.33673 16.0228 9.6259L11.0228 13.6492C10.8703 13.7717 10.6852 13.8334 10.5002 13.8334Z" fill="white"/>
<mask id="mask0_274_564" style="mask-type:luminance" maskUnits="userSpaceOnUse" x="4" y="8" width="13" height="6">
<path fill-rule="evenodd" clip-rule="evenodd" d="M10.5002 13.8334C10.3102 13.8334 10.1211 13.7692 9.96692 13.6401L4.96692 9.4734C4.61358 9.17923 4.56525 8.6534 4.86025 8.30007C5.15442 7.94673 5.67942 7.89923 6.03358 8.1934L10.5094 11.9234L14.9778 8.32757C15.3361 8.03923 15.8611 8.0959 16.1494 8.45423C16.4377 8.81257 16.3811 9.33673 16.0228 9.6259L11.0228 13.6492C10.8703 13.7717 10.6852 13.8334 10.5002 13.8334Z" fill="white"/>
</mask>
<g mask="url(#mask0_274_564)">
<rect x="0.5" y="0.5" width="20" height="20" fill="#0D0E0F"/>
</g>
</svg>
