<svg width="16" height="16" viewBox="0 0 16 16" fill="none" xmlns="http://www.w3.org/2000/svg">
<g clip-path="url(#clip0_433_496)">
<path fill-rule="evenodd" clip-rule="evenodd" d="M13.5236 2.78143L11.5314 0.753007C11.0613 0.274385 10.4002 0 9.71687 0H3.33173C2.48184 0 1.79057 0.667274 1.79057 1.48765V4.47531H1.54117C0.691277 4.47531 0 5.14258 0 5.96296V11.5185C0 12.3389 0.691277 13.0062 1.54117 13.0062H1.79057V14.5123C1.79057 15.3327 2.48184 16 3.33173 16H12.6683C13.5182 16 14.2094 15.3327 14.2094 14.5123V13.0062H14.4588C15.3087 13.0062 16 12.3389 16 11.5185V5.96296C16 5.14258 15.3087 4.47531 14.4588 4.47531H14.2094V4.44201C14.2094 3.8216 13.9658 3.23169 13.5236 2.78143ZM2.95444 1.48765C2.95444 1.28692 3.12378 1.12346 3.33173 1.12346H9.71687C10.0819 1.12346 10.4356 1.27025 10.6868 1.52597L12.679 3.5544C12.9155 3.79519 13.0456 4.11022 13.0456 4.44201V4.47531H2.95444V1.48765ZM14.8361 11.5185C14.8361 11.7192 14.6668 11.8827 14.4588 11.8827H1.54117C1.33322 11.8827 1.16387 11.7192 1.16387 11.5185V5.96296C1.16387 5.76223 1.33322 5.59876 1.54117 5.59876H14.4588C14.6668 5.59876 14.8361 5.76223 14.8361 5.96296V11.5185ZM13.0456 14.5123C13.0456 14.7131 12.8762 14.8765 12.6683 14.8765H3.33173C3.12378 14.8765 2.95444 14.7131 2.95444 14.5123V13.0062H13.0456V14.5123Z" fill="#E8AE00"/>
<path d="M4.34366 6.83154H3.43121C3.31662 6.83154 3.20672 6.87528 3.1258 6.95307C3.04488 7.03087 2.99963 7.13636 3 7.24623L3.00636 10.3863C3.00636 10.6146 3.19942 10.7996 3.43756 10.7996C3.6757 10.7996 3.86876 10.6146 3.86876 10.3863V9.43286C4.04507 9.43201 4.23342 9.43126 4.34366 9.43126C5.10131 9.43126 5.71773 8.84815 5.71773 8.1314C5.71773 7.41466 5.10131 6.83154 4.34366 6.83154ZM4.34366 8.60454C4.23244 8.60454 4.0434 8.60528 3.86641 8.60616C3.86549 8.43018 3.86468 8.24067 3.86468 8.1314C3.86468 8.0379 3.86419 7.84221 3.86367 7.65827H4.34363C4.62098 7.65827 4.8553 7.87493 4.8553 8.1314C4.8553 8.38788 4.62101 8.60454 4.34366 8.60454Z" fill="#E8AE00"/>
<path d="M8.01153 6.83154H7.11089C6.99639 6.83154 6.88658 6.87519 6.80569 6.95288C6.72479 7.03056 6.67946 7.13592 6.67969 7.24568C6.67969 7.2457 6.6861 10.2838 6.68613 10.2948C6.68656 10.4045 6.73238 10.5094 6.81356 10.5867C6.89437 10.6636 7.00355 10.7067 7.11733 10.7067H7.11897C7.14619 10.7066 7.7886 10.7042 8.04543 10.6999C9.01977 10.6836 9.72695 9.87158 9.72695 8.76911C9.72692 7.61021 9.03757 6.83154 8.01153 6.83154ZM8.03036 9.87334C7.91868 9.87521 7.72654 9.87673 7.5471 9.87783C7.54589 9.51879 7.54353 8.0314 7.54287 7.65827H8.01153C8.80302 7.65827 8.86451 8.50853 8.86451 8.76914C8.86451 9.3118 8.60659 9.8637 8.03036 9.87334Z" fill="#E8AE00"/>
<path d="M12.5687 7.62653C12.8069 7.62653 12.9999 7.44145 12.9999 7.21317C12.9999 6.98488 12.8069 6.7998 12.5687 6.7998H11.2503C11.0122 6.7998 10.8191 6.98488 10.8191 7.21317V10.3315C10.8191 10.5598 11.0122 10.7449 11.2503 10.7449C11.4884 10.7449 11.6815 10.5598 11.6815 10.3315V9.15619H12.464C12.7021 9.15619 12.8952 8.97112 12.8952 8.74283C12.8952 8.51454 12.7021 8.32947 12.464 8.32947H11.6815V7.62653H12.5687Z" fill="#E8AE00"/>
</g>
<defs>
<clipPath id="clip0_433_496">
<rect width="16" height="16" fill="white"/>
</clipPath>
</defs>
</svg>
