<svg width="24" height="24" viewBox="0 0 24 24" fill="none" xmlns="http://www.w3.org/2000/svg">
<path fill-rule="evenodd" clip-rule="evenodd" d="M3.59961 12.0002C3.59961 11.5031 4.00255 11.1002 4.49961 11.1002L17.2651 11.1002L12.2758 6.34894C11.9175 6.00443 11.9063 5.43469 12.2509 5.0764C12.5954 4.7181 13.1651 4.70693 13.5234 5.05144L20.1234 11.3514C20.2999 11.5211 20.3996 11.7554 20.3996 12.0002C20.3996 12.245 20.2999 12.4793 20.1234 12.6489L13.5234 18.9489C13.1651 19.2935 12.5954 19.2823 12.2509 18.924C11.9063 18.5657 11.9175 17.996 12.2758 17.6514L17.2651 12.9002L4.49961 12.9002C4.00255 12.9002 3.59961 12.4973 3.59961 12.0002Z" fill="white"/>
</svg>
