<svg width="20" height="21" viewBox="0 0 20 21" fill="none" xmlns="http://www.w3.org/2000/svg">
<g clip-path="url(#clip0_407_855)">
<g clip-path="url(#clip1_407_855)">
<path d="M0.269455 14.2617H10.11V16.0698H16.2615V14.2657H18.7054C18.8637 16.416 18.8761 18.3305 16.6707 19.7899C16.6437 19.8076 16.6221 19.8319 16.5623 19.8851C16.8335 20.1104 17.1009 20.333 17.3655 20.5531C17.0082 20.8946 16.7212 21.1691 16.3922 21.4844C16.1019 21.1849 15.7879 20.8374 15.4458 20.5209C15.3453 20.4276 15.1673 20.3895 15.0215 20.3803C14.7831 20.3659 14.5414 20.4046 14.301 20.4053C11.1057 20.4072 7.91048 20.4066 4.71457 20.4066C4.56154 20.4066 4.398 20.4361 4.25679 20.3935C3.83054 20.2654 3.55994 20.4631 3.30642 20.7685C3.09034 21.0286 2.84405 21.263 2.61877 21.5008C2.31468 21.1809 2.03949 20.8919 1.73474 20.5708C1.939 20.3902 2.19843 20.1603 2.49004 19.9015C2.28906 19.7577 2.13866 19.6579 1.99614 19.5475C0.928209 18.7246 0.350896 17.633 0.275366 16.2925C0.23793 15.6285 0.268798 14.9605 0.268798 14.2617H0.269455Z" fill="#999999"/>
<path d="M0.275543 9.28721C0.270288 9.16834 0.261093 9.06128 0.261093 8.95423C0.260437 7.21375 0.258466 5.47393 0.261093 3.73345C0.26372 1.8209 1.59108 0.486313 3.50101 0.500106C4.14203 0.504703 4.80275 0.491568 5.41882 0.636717C6.5117 0.894833 7.20001 1.65276 7.53235 2.72069C7.59671 2.92824 7.68012 3.02872 7.90803 3.09046C9.19401 3.43921 10.0964 4.64113 10.1128 5.98228C10.1155 6.19836 10.1128 6.41444 10.1128 6.64891H4.02578C3.73548 5.11401 4.56959 3.52985 6.31335 3.03529C6.15573 2.35027 5.48121 1.7723 4.7732 1.74734C4.23792 1.72829 3.70067 1.72632 3.16539 1.74734C2.24261 1.78346 1.50044 2.63071 1.4965 3.64676C1.48994 5.39774 1.49453 7.14938 1.49453 8.90037C1.49453 9.0199 1.49453 9.13944 1.49453 9.28656H0.274229L0.275543 9.28721Z" fill="#999999"/>
<path d="M10.0926 13.0328C9.96387 13.0328 9.86732 13.0328 9.77077 13.0328C6.64317 13.0328 3.51491 13.0335 0.387306 13.0321C-0.285898 13.0321 -0.769947 12.7136 -0.940054 12.1698C-1.1962 11.3514 -0.61626 10.5633 0.267771 10.5515C1.20829 10.539 2.1488 10.5482 3.08931 10.5482C5.29873 10.5482 7.5075 10.5482 9.71692 10.5482C9.83514 10.5482 9.95336 10.5482 10.0926 10.5482V13.0321V13.0328Z" fill="#999999"/>
<path d="M15.0237 14.8712H11.3634C11.3575 14.7556 11.3477 14.6506 11.3477 14.5455C11.3464 13.2772 11.3464 12.0083 11.3477 10.7401C11.3483 9.82254 11.8494 9.31813 12.763 9.31419C13.1019 9.31288 13.4408 9.30565 13.7797 9.31616C14.5409 9.34046 15.0381 9.85209 15.0401 10.6153C15.044 11.9387 15.0414 13.2615 15.0401 14.5849C15.0401 14.6709 15.0309 14.7563 15.0237 14.8712Z" fill="#999999"/>
<path d="M16.2832 13.0208V10.548C16.8782 10.548 17.4648 10.546 18.0506 10.5486C18.356 10.5499 18.668 10.525 18.9668 10.5742C19.619 10.682 20.0433 11.2159 20.0164 11.8392C19.9901 12.4507 19.5389 12.9754 18.8985 13.0089C18.0394 13.0543 17.1764 13.0201 16.2839 13.0201L16.2832 13.0208Z" fill="#999999"/>
</g>
</g>
<defs>
<clipPath id="clip0_407_855">
<rect width="20" height="20" fill="white" transform="translate(0 0.5)"/>
</clipPath>
<clipPath id="clip1_407_855">
<rect width="21.0171" height="21" fill="white" transform="translate(-1 0.5)"/>
</clipPath>
</defs>
</svg>
