<svg width="20" height="21" viewBox="0 0 20 21" fill="none" xmlns="http://www.w3.org/2000/svg">
<g clip-path="url(#clip0_407_846)">
<g clip-path="url(#clip1_407_846)">
<path d="M10.0119 17.9599C7.01369 17.9599 4.01627 17.9599 1.01806 17.9599C0.714934 17.9599 0.574786 18.0987 0.574786 18.3979C0.574786 18.4754 0.578723 18.553 0.573999 18.6297C0.5677 18.7227 0.558252 18.8157 0.54093 18.9064C0.476368 19.2374 0.159068 19.5026 -0.220432 19.4987C-0.601507 19.4948 -0.917233 19.2119 -0.974709 18.8483C-0.988094 18.763 -0.99518 18.6754 -0.99518 18.5894C-0.995967 16.8281 -1.00778 15.0661 -0.991243 13.3049C-0.981795 12.2785 -0.602295 11.3855 0.125212 10.6421C0.566913 10.1909 1.09207 9.87001 1.69282 9.66536C2.16522 9.50489 2.65338 9.45605 3.15098 9.45605C7.76246 9.45761 12.3739 9.45373 16.9854 9.45915C18.3365 9.46071 19.4309 9.99714 20.2419 11.0638C20.6403 11.5886 20.8781 12.1847 20.9592 12.8359C20.9867 13.0553 20.9985 13.2785 20.9993 13.5002C21.0025 15.2103 21.0017 16.9204 21.0009 18.6305C21.0009 18.8979 20.934 19.1413 20.7104 19.3181C20.4741 19.5049 20.2104 19.5537 19.9293 19.4398C19.66 19.3297 19.49 19.1274 19.4514 18.8382C19.4317 18.6925 19.4341 18.5429 19.4301 18.3956C19.4238 18.1576 19.3238 18.0142 19.1239 17.97C19.0798 17.9599 19.0333 17.9607 18.9876 17.9607C15.9965 17.9607 13.0054 17.9607 10.0135 17.9607L10.0119 17.9599Z" fill="#999999"/>
<path d="M9.90197 2.5C11.8467 2.5 13.7907 2.5 15.7346 2.5C16.3858 2.5 16.9944 2.64341 17.5195 3.03953C18.1951 3.54884 18.5895 4.21938 18.6226 5.06124C18.651 5.77519 18.6384 6.4907 18.6415 7.20543C18.6439 7.66589 18.6415 8.12636 18.6415 8.58682C18.6415 8.62791 18.6391 8.67132 18.6281 8.71085C18.5943 8.83566 18.5258 8.88527 18.3966 8.86124C18.2557 8.83488 18.1195 8.77829 17.9786 8.76279C17.6471 8.72713 17.3148 8.70233 16.9818 8.68527C16.7597 8.67364 16.6913 8.63411 16.6598 8.41938C16.559 7.73876 15.9189 7.12636 15.1 7.13566C14.1867 7.14574 13.2734 7.13798 12.3609 7.13798C11.6814 7.13798 11.1011 7.53643 10.8704 8.16434C10.8373 8.25426 10.8247 8.35194 10.8074 8.44651C10.7751 8.61628 10.7114 8.67984 10.5397 8.68217C10.1799 8.68605 9.8193 8.68605 9.45949 8.68217C9.29414 8.68062 9.22879 8.61628 9.19887 8.42791C9.15715 8.16357 9.05322 7.92791 8.88315 7.72093C8.5753 7.34574 8.1769 7.14186 7.6856 7.13953C6.74315 7.13488 5.80069 7.13721 4.85745 7.13876C4.06538 7.13953 3.44574 7.74884 3.34496 8.41783C3.31268 8.63411 3.24733 8.67209 3.0253 8.68605C2.65761 8.71008 2.28992 8.74419 1.92302 8.78295C1.81043 8.79457 1.70256 8.84264 1.59076 8.86124C1.4703 8.88062 1.41439 8.84031 1.38054 8.72403C1.36715 8.67829 1.36085 8.62946 1.36085 8.5814C1.36007 7.47674 1.34511 6.37209 1.364 5.26744C1.38369 4.11163 1.92617 3.26202 2.98751 2.74806C3.40795 2.54574 3.86382 2.5 4.32521 2.5C6.18413 2.5 8.04305 2.5 9.90197 2.5Z" fill="#999999"/>
</g>
</g>
<defs>
<clipPath id="clip0_407_846">
<rect width="20" height="20" fill="white" transform="translate(0 0.5)"/>
</clipPath>
<clipPath id="clip1_407_846">
<rect width="22" height="17" fill="white" transform="translate(-1 2.5)"/>
</clipPath>
</defs>
</svg>
