<svg width="24" height="24" viewBox="0 0 24 24" fill="none" xmlns="http://www.w3.org/2000/svg">
<path d="M18.29 18C17.4449 18 17.0217 16.9783 17.6193 16.3807C17.9897 16.0103 17.9897 15.4097 17.6193 15.0393L15.4093 12.8293C14.3051 11.7251 12.5149 11.7251 11.4107 12.8293C10.306 13.934 8.51465 13.9334 7.41067 12.828L2.70429 8.11524C2.31524 7.72567 2.31546 7.09454 2.70476 6.70524C3.09425 6.31575 3.72575 6.31575 4.11524 6.70524L7.4092 9.9992C8.51421 11.1042 10.3058 11.1042 11.4108 9.99921C12.5152 8.89482 14.3055 8.89411 15.4108 9.99762L19.0391 13.6202C19.4097 13.9902 20.01 13.99 20.3803 13.6197C20.978 13.022 22 13.4453 22 14.2905V16.2426C22 17.2132 21.2132 18 20.2426 18H18.29Z" fill="#F93C65"/>
</svg>
