<svg width="24" height="25" viewBox="0 0 24 25" fill="none" xmlns="http://www.w3.org/2000/svg">
<g clip-path="url(#clip0_2001_466)">
<path d="M19.3228 23.5H4.67721C2.65339 23.5 1 21.8466 1 19.8228V5.17721C1 3.15339 2.65339 1.5 4.67721 1.5H19.3228C21.3466 1.5 23 3.15339 23 5.17721V19.8228C23 21.8556 21.3556 23.5 19.3228 23.5Z" stroke="#0D0E0F" stroke-width="1.5"/>
<path d="M8.01081 16.4977C9.07693 17.5638 10.4954 18.1511 12.0042 18.1511C13.5131 18.1511 14.9225 17.5638 15.9977 16.4977C17.0638 15.4315 17.6511 14.0131 17.6511 12.5042C17.6511 10.9954 17.0638 9.57693 15.9977 8.51081C14.9315 7.44469 13.5131 6.85742 12.0042 6.85742C10.4954 6.85742 9.07693 7.44469 8.01081 8.51081C6.94469 9.57693 6.35742 10.9954 6.35742 12.5042C6.35742 14.0131 6.94469 15.4315 8.01081 16.4977Z" stroke="#0D0E0F" stroke-width="1.5"/>
<path d="M18.7522 6.67234C19.351 6.67234 19.8364 6.18692 19.8364 5.58812C19.8364 4.98933 19.351 4.50391 18.7522 4.50391C18.1534 4.50391 17.668 4.98933 17.668 5.58812C17.668 6.18692 18.1534 6.67234 18.7522 6.67234Z" stroke="#0D0E0F" stroke-width="1.5"/>
</g>
<defs>
<clipPath id="clip0_2001_466">
<rect width="24" height="24" fill="white" transform="translate(0 0.5)"/>
</clipPath>
</defs>
</svg>
