<svg width="14" height="14" viewBox="0 0 14 14" fill="none" xmlns="http://www.w3.org/2000/svg">
<path fill-rule="evenodd" clip-rule="evenodd" d="M6.99941 12.5999C8.48463 12.5999 9.90901 12.0099 10.9592 10.9597C12.0094 9.9095 12.5994 8.48511 12.5994 6.9999C12.5994 5.51469 12.0094 4.09031 10.9592 3.0401C9.90901 1.9899 8.48463 1.3999 6.99941 1.3999C5.5142 1.3999 4.08982 1.9899 3.03962 3.0401C1.98941 4.09031 1.39941 5.51469 1.39941 6.9999C1.39941 8.48511 1.98941 9.9095 3.03962 10.9597C4.08982 12.0099 5.5142 12.5999 6.99941 12.5999ZM9.59431 6.0948C9.72182 5.96278 9.79238 5.78596 9.79079 5.60242C9.78919 5.41888 9.71557 5.24331 9.58579 5.11353C9.456 4.98374 9.28043 4.91013 9.09689 4.90853C8.91336 4.90694 8.73654 4.97749 8.60451 5.105L6.29941 7.4101L5.39431 6.505C5.26229 6.37749 5.08547 6.30694 4.90193 6.30853C4.7184 6.31013 4.54283 6.38374 4.41304 6.51353C4.28326 6.64331 4.20964 6.81888 4.20804 7.00242C4.20645 7.18596 4.277 7.36278 4.40451 7.4948L5.80451 8.8948C5.93578 9.02603 6.1138 9.09975 6.29941 9.09975C6.48503 9.09975 6.66304 9.02603 6.79431 8.8948L9.59431 6.0948Z" fill="#2E964B"/>
</svg>
