<svg width="24" height="25" viewBox="0 0 24 25" fill="none" xmlns="http://www.w3.org/2000/svg">
<g clip-path="url(#clip0_2001_154)">
<path d="M5.96818 8.73438H1.37109V23.3942H5.96818V8.73438Z" stroke="#0D0E0F" stroke-width="1.5"/>
<path d="M18.4024 8.41676C18.2329 8.39557 18.0529 8.38498 17.8728 8.37439C15.2989 8.26846 13.8477 9.79376 13.3393 10.4505C13.2016 10.6306 13.138 10.7365 13.138 10.7365V8.7769H8.74219V23.4367H13.138H13.3393C13.3393 21.9432 13.3393 20.4603 13.3393 18.9667C13.3393 18.1617 13.3393 17.3567 13.3393 16.5517C13.3393 15.556 13.2651 14.4968 13.763 13.5858C14.1867 12.8232 14.9493 12.4419 15.8073 12.4419C18.3495 12.4419 18.4024 14.7404 18.4024 14.9522C18.4024 14.9628 18.4024 14.9734 18.4024 14.9734V23.5003H22.9995V13.9354C22.9995 10.6623 21.3365 8.73453 18.4024 8.41676Z" stroke="#0D0E0F" stroke-width="1.5"/>
<path d="M3.66927 6.83855C5.14347 6.83855 6.33855 5.64348 6.33855 4.16928C6.33855 2.69508 5.14347 1.5 3.66927 1.5C2.19507 1.5 1 2.69508 1 4.16928C1 5.64348 2.19507 6.83855 3.66927 6.83855Z" stroke="#0D0E0F" stroke-width="1.5"/>
</g>
<defs>
<clipPath id="clip0_2001_154">
<rect width="24" height="24" fill="white" transform="translate(0 0.5)"/>
</clipPath>
</defs>
</svg>
