<svg width="22" height="21" viewBox="0 0 22 21" fill="none" xmlns="http://www.w3.org/2000/svg">
<g opacity="0.5" clip-path="url(#clip0_431_35391)">
<path d="M16.1562 7.13406V6.32425C16.1562 3.83254 14.0937 1.71459 11.4812 1.52771C10.0374 1.40312 8.59365 1.87032 7.52803 2.74242C6.4624 3.61452 5.84365 4.86037 5.84365 6.13738V7.13406C3.8499 7.47667 2.3374 9.06514 2.3374 10.9962V16.6337C2.3374 18.6894 4.19365 20.3401 6.42803 20.3401H15.503C17.7718 20.3401 19.628 18.6582 19.628 16.6026V10.9339C19.6624 9.06514 18.1499 7.50782 16.1562 7.13406ZM8.55928 3.77025C9.31553 3.14732 10.3124 2.83586 11.3437 2.9293C13.1655 3.08503 14.6093 4.58006 14.6093 6.32425V7.04062H7.39053V6.10623C7.39053 5.23413 7.80303 4.39318 8.55928 3.77025ZM18.1155 16.6337C18.1155 17.9107 16.9468 18.9697 15.5374 18.9697H6.4624C5.05303 18.9697 3.91865 17.9419 3.91865 16.6649V10.9962C3.91865 9.59463 5.15615 8.47336 6.70303 8.47336H15.2968C16.8437 8.47336 18.1155 9.59463 18.1155 10.9339V16.6337Z" fill="#64748B"/>
<path d="M11.0001 11.7129C10.5876 11.7129 10.2095 12.0244 10.2095 12.4293V15.6996C10.2095 16.0734 10.5532 16.416 11.0001 16.416C11.4126 16.416 11.7907 16.1045 11.7907 15.6996V12.3981C11.7907 12.0244 11.4126 11.7129 11.0001 11.7129Z" fill="#64748B"/>
</g>
<defs>
<clipPath id="clip0_431_35391">
<rect width="22" height="19.9337" fill="white" transform="translate(0 0.966797)"/>
</clipPath>
</defs>
</svg>
