<svg width="22" height="22" viewBox="0 0 22 22" fill="none" xmlns="http://www.w3.org/2000/svg">
<g opacity="0.5">
<path d="M16.1562 6.80614V5.91239C16.1562 3.16239 14.0937 0.824887 11.4812 0.618637C10.0374 0.481137 8.59365 0.996762 7.52803 1.95926C6.4624 2.92176 5.84365 4.29676 5.84365 5.70614V6.80614C3.8499 7.18426 2.3374 8.93739 2.3374 11.0686V17.2905C2.3374 19.5593 4.19365 21.3811 6.42803 21.3811H15.503C17.7718 21.3811 19.628 19.5249 19.628 17.2561V10.9999C19.6624 8.93739 18.1499 7.21864 16.1562 6.80614ZM8.55928 3.09364C9.31553 2.40614 10.3124 2.06239 11.3437 2.16551C13.1655 2.33739 14.6093 3.98739 14.6093 5.91239V6.70301H7.39053V5.67176C7.39053 4.70926 7.80303 3.78114 8.55928 3.09364ZM18.1155 17.2905C18.1155 18.6999 16.9468 19.8686 15.5374 19.8686H6.4624C5.05303 19.8686 3.91865 18.7343 3.91865 17.3249V11.0686C3.91865 9.52176 5.15615 8.28426 6.70303 8.28426H15.2968C16.8437 8.28426 18.1155 9.52176 18.1155 10.9999V17.2905Z" fill="#64748B"/>
<path d="M10.9999 11.8594C10.5874 11.8594 10.2092 12.2031 10.2092 12.65V16.2594C10.2092 16.6719 10.553 17.05 10.9999 17.05C11.4124 17.05 11.7905 16.7063 11.7905 16.2594V12.6156C11.7905 12.2031 11.4124 11.8594 10.9999 11.8594Z" fill="#64748B"/>
</g>
</svg>
