<svg width="25" height="24" viewBox="0 0 25 24" fill="none" xmlns="http://www.w3.org/2000/svg">
<path d="M21.3084 18.8843L17.9598 15.5357C19.0792 14.2079 19.7566 12.4966 19.7566 10.6283C19.7566 6.42183 16.3347 3 12.1283 3C7.92183 3 4.5 6.42183 4.5 10.6283C4.5 14.8347 7.92183 18.2566 12.1283 18.2566C13.9966 18.2566 15.7079 17.5792 17.0357 16.4598L20.3843 19.8084C20.5115 19.9357 20.679 20.0002 20.8463 20.0002C21.0137 20.0002 21.1811 19.9366 21.3084 19.8084C21.5639 19.5538 21.5639 19.1397 21.3084 18.8843ZM5.80771 10.6283C5.80771 7.14282 8.64282 4.30771 12.1283 4.30771C15.6138 4.30771 18.4489 7.14282 18.4489 10.6283C18.4489 14.1138 15.6138 16.9489 12.1283 16.9489C8.64282 16.9489 5.80771 14.1138 5.80771 10.6283Z" fill="#0D0E0F"/>
</svg>
