<svg width="22" height="21" viewBox="0 0 22 21" fill="none" xmlns="http://www.w3.org/2000/svg">
<g opacity="0.5" clip-path="url(#clip0_431_35382)">
<path d="M10.9998 9.50627C13.5436 9.50627 15.6061 7.69978 15.6061 5.45724C15.6061 3.21469 13.5436 1.4082 10.9998 1.4082C8.45605 1.4082 6.39355 3.21469 6.39355 5.45724C6.39355 7.69978 8.45605 9.50627 10.9998 9.50627ZM10.9998 2.84094C12.6842 2.84094 14.0592 4.0245 14.0592 5.48838C14.0592 6.95226 12.6842 8.13583 10.9998 8.13583C9.31543 8.13583 7.94043 6.95226 7.94043 5.48838C7.94043 4.0245 9.31543 2.84094 10.9998 2.84094Z" fill="#64748B"/>
<path d="M13.2342 10.9082H8.76543C5.0873 10.9082 2.09668 13.6491 2.09668 16.9818V19.5669C2.09668 19.9407 2.44043 20.2833 2.8873 20.2833C3.33418 20.2833 3.67793 19.9718 3.67793 19.5669V16.9818C3.67793 14.4277 5.98105 12.3098 8.83418 12.3098H13.2686C16.0873 12.3098 18.4248 14.3966 18.4248 16.9818V19.5669C18.4248 19.9407 18.7686 20.2833 19.2154 20.2833C19.6623 20.2833 20.0061 19.9718 20.0061 19.5669V16.9818C19.9029 13.6491 16.9123 10.9082 13.2342 10.9082Z" fill="#64748B"/>
</g>
<defs>
<clipPath id="clip0_431_35382">
<rect width="22" height="19.9337" fill="white" transform="translate(0 0.878906)"/>
</clipPath>
</defs>
</svg>
