<svg width="15" height="27" viewBox="0 0 15 27" fill="none" xmlns="http://www.w3.org/2000/svg">
<path d="M1.48108 6.63424L1.48109 6.63424L6.35416 1.73756C6.35684 1.73482 6.35937 1.73232 6.3617 1.73005M1.48108 6.63424L6.71139 2.08747L6.35843 1.73332C6.36773 1.72405 6.37538 1.71718 6.37861 1.71431L6.37974 1.7133C6.37727 1.71548 6.37063 1.72138 6.3625 1.72927C6.36223 1.72953 6.36197 1.72978 6.3617 1.73005M1.48108 6.63424C0.921124 7.19694 0.923201 8.10708 1.48597 8.66719C2.04868 9.22724 2.95884 9.22508 3.51889 8.66237L3.51891 8.66235L5.9375 6.23198M1.48108 6.63424L5.9375 6.23198M6.3617 1.73005C6.921 1.17412 7.82763 1.17235 8.38871 1.73043C8.38992 1.73161 8.39117 1.73284 8.39245 1.73411L8.39391 1.73556L8.406 1.74773L13.2689 6.63419L12.9145 6.98689L13.2689 6.6342C13.8288 7.1968 13.8269 8.107 13.264 8.66716C12.7013 9.22719 11.7911 9.22502 11.2311 8.66232L11.2311 8.66231L8.8125 6.23201L8.8125 24.875C8.8125 25.6689 8.16892 26.3125 7.375 26.3125C6.58107 26.3125 5.9375 25.6689 5.9375 24.875L5.9375 6.23198M6.3617 1.73005C6.36028 1.73146 6.35887 1.73288 6.35745 1.7343L5.9375 6.23198M8.3925 1.73421C8.39295 1.73466 8.39341 1.73512 8.39388 1.73559L8.3925 1.73421Z" fill="#363062" stroke="#363062"/>
</svg>
