<svg width="29" height="29" viewBox="0 0 29 29" fill="none" xmlns="http://www.w3.org/2000/svg">
<path d="M14.4303 28.25C22.2418 28.25 28.597 22.0817 28.597 14.5C28.597 6.91825 22.2418 0.75 14.4303 0.75C6.61884 0.75 0.263672 6.91825 0.263672 14.5C0.263672 22.0817 6.61884 28.25 14.4303 28.25ZM19.3788 10.375C19.6612 10.368 19.9423 10.416 20.2053 10.5161C20.4684 10.6162 20.7081 10.7664 20.9104 10.9578C21.1127 11.1493 21.2735 11.3781 21.3832 11.6308C21.4929 11.8835 21.5494 12.155 21.5493 12.4293C21.5492 12.7035 21.4925 12.975 21.3826 13.2276C21.2727 13.4802 21.1118 13.709 20.9094 13.9003C20.707 14.0916 20.4671 14.2417 20.204 14.3416C19.9409 14.4415 19.6598 14.4893 19.3773 14.4821C18.8257 14.4681 18.3015 14.2455 17.9165 13.8618C17.5315 13.478 17.3161 12.9635 17.3163 12.4279C17.3165 11.8923 17.5322 11.3779 17.9175 10.9944C18.3027 10.6109 18.8271 10.3887 19.3788 10.375ZM13.2857 19.8886C14.0413 20.0357 14.8194 20.0357 15.575 19.8886C15.9334 19.8171 16.2904 19.7085 16.6375 19.5683C16.969 19.4307 17.2948 19.2603 17.5994 19.0623C17.8941 18.867 18.176 18.6415 18.4367 18.3899C18.6959 18.1396 18.9283 17.866 19.1294 17.5759L21.4783 19.1117C20.8676 19.9902 20.089 20.7468 19.1847 21.3406C18.2633 21.9441 17.229 22.3664 16.1403 22.5836C15.0115 22.8037 13.849 22.8032 12.7204 22.5823C11.6313 22.3682 10.597 21.9461 9.67742 21.3406C8.77308 20.7454 7.99374 19.9885 7.38101 19.1104L9.72984 17.5745C9.93242 17.8646 10.1648 18.1383 10.4212 18.3857C11.2033 19.1487 12.1996 19.6714 13.2857 19.8886ZM9.472 10.375C9.75116 10.3751 10.0276 10.4285 10.2854 10.5323C10.5433 10.6361 10.7776 10.7881 10.9749 10.9798C11.1722 11.1714 11.3287 11.3989 11.4355 11.6493C11.5422 11.8996 11.5971 12.1679 11.597 12.4389C11.5969 12.7098 11.5418 12.9781 11.4349 13.2284C11.328 13.4787 11.1714 13.706 10.9739 13.8976C10.7764 14.0891 10.5421 14.241 10.2841 14.3446C10.0262 14.4482 9.74974 14.5015 9.47059 14.5014C8.90681 14.5012 8.36621 14.2836 7.96769 13.8966C7.56918 13.5095 7.3454 12.9847 7.34559 12.4375C7.34578 11.8903 7.56991 11.3656 7.96869 10.9788C8.36748 10.592 8.90823 10.3748 9.472 10.375Z" fill="#130F26"/>
</svg>
