<svg width="15" height="27" viewBox="0 0 15 27" fill="none" xmlns="http://www.w3.org/2000/svg">
<path d="M13.2689 20.9908L13.2689 20.9908L8.39584 25.8874C8.39316 25.8902 8.39063 25.8927 8.3883 25.895M13.2689 20.9908L8.03861 25.5375L8.39157 25.8917C8.38227 25.9009 8.37462 25.9078 8.37139 25.9107L8.37026 25.9117C8.37273 25.9095 8.37937 25.9036 8.3875 25.8957C8.38777 25.8955 8.38803 25.8952 8.3883 25.895M13.2689 20.9908C13.8289 20.4281 13.8268 19.5179 13.264 18.9578C12.7013 18.3978 11.7912 18.3999 11.2311 18.9626L11.2311 18.9627L8.8125 21.393M13.2689 20.9908L8.8125 21.393M8.3883 25.895C7.829 26.4509 6.92237 26.4526 6.36129 25.8946C6.36008 25.8934 6.35883 25.8922 6.35755 25.8909L6.35609 25.8894L6.344 25.8773L1.4811 20.9908L1.8355 20.6381L1.48109 20.9908C0.921224 20.4282 0.923109 19.518 1.486 18.9578C2.04871 18.3978 2.95885 18.4 3.51889 18.9627L3.51891 18.9627L5.9375 21.393L5.9375 2.75C5.9375 1.95608 6.58108 1.3125 7.375 1.3125C8.16893 1.3125 8.8125 1.95608 8.8125 2.75L8.8125 21.393M8.3883 25.895C8.38972 25.8935 8.39113 25.8921 8.39255 25.8907L8.8125 21.393M6.3575 25.8908C6.35705 25.8903 6.35659 25.8899 6.35612 25.8894L6.3575 25.8908Z" fill="#61C277" stroke="#61C277"/>
</svg>
